<svg xmlns="http://www.w3.org/2000/svg" viewBox="0 0 165.71 217.86"><defs><style>.cls-1{fill:#fff;}.cls-2{fill:#f5cf4a;}.cls-3{fill:#1f386c;}.cls-4{fill:#ca2f28;}.cls-5{fill:#f8d246;}</style></defs><g id="Capa_2" data-name="Capa 2"><g id="LOGO"><polygon class="cls-1" points="42.93 26.79 52.07 13.99 61.21 26.79 42.93 26.79"/><polygon class="cls-1" points="73.64 26.79 82.79 13.99 91.93 26.79 73.64 26.79"/><polygon class="cls-1" points="104.36 26.79 113.5 13.99 122.64 26.79 104.36 26.79"/><polygon class="cls-1" points="108.07 10.24 98.93 23.04 89.79 10.24 108.07 10.24"/><polygon class="cls-1" points="76.64 10.24 67.5 23.04 58.36 10.24 76.64 10.24"/><polygon class="cls-1" points="42.93 32.21 76.64 86.21 64.79 32.21 42.93 32.21"/><polygon class="cls-1" points="71.07 32.21 94.64 32.21 82.86 88.93 71.07 32.21"/><polygon class="cls-1" points="100.5 32.21 122.64 32.21 89.79 86.21 100.5 32.21"/><rect class="cls-2" x="52.36" width="30.71" height="5.29"/><rect class="cls-3" x="83.07" width="15.71" height="5.29"/><rect class="cls-4" x="98.79" width="15.86" height="5.29"/><polygon class="cls-1" points="22.43 195.29 22.43 127.92 52.03 146.59 83.14 127.92 114.25 146.8 143.43 127.92 143.43 195.29 22.43 195.29"/><path class="cls-3" d="M58,182.64H52.94v-21l-3.28,1.24v-5.4l4-1.82H58Z"/><path class="cls-3" d="M72.4,169.24l.91.67a2.73,2.73,0,0,1-1.4,1.25,5.52,5.52,0,0,1-2.21.4,6.35,6.35,0,0,1-6-3.75,9.56,9.56,0,0,1-.85-4.15v0a9.9,9.9,0,0,1,.93-4.47,6.25,6.25,0,0,1,2.7-2.82,8.83,8.83,0,0,1,4.27-1,8.6,8.6,0,0,1,4.26,1,6.45,6.45,0,0,1,2.7,2.86,10,10,0,0,1,.93,4.5v0a12.05,12.05,0,0,1-.39,2.92,28.13,28.13,0,0,1-1.1,3.39c-.06.18-.12.35-.19.52l-.21.5-4.83,11.56H66.54Zm.42-3.29a3.65,3.65,0,0,0,.73-2.44v0a3.4,3.4,0,0,0-.73-2.34,2.63,2.63,0,0,0-2.07-.83,2.66,2.66,0,0,0-2.09.83,3.53,3.53,0,0,0-.73,2.36v0a3.67,3.67,0,0,0,.73,2.43,2.61,2.61,0,0,0,2.09.85A2.55,2.55,0,0,0,72.82,166Z"/><path class="cls-3" d="M91.9,169.24l.91.67a2.73,2.73,0,0,1-1.4,1.25,5.52,5.52,0,0,1-2.21.4,6.37,6.37,0,0,1-6-3.75,9.56,9.56,0,0,1-.85-4.15v0a9.9,9.9,0,0,1,.93-4.47,6.35,6.35,0,0,1,2.7-2.82,8.83,8.83,0,0,1,4.27-1,8.6,8.6,0,0,1,4.26,1,6.45,6.45,0,0,1,2.7,2.86,10,10,0,0,1,.93,4.5v0a12.05,12.05,0,0,1-.39,2.92,28.13,28.13,0,0,1-1.1,3.39c-.06.18-.12.35-.19.52l-.21.5-4.83,11.56H86Zm.42-3.29a3.65,3.65,0,0,0,.74-2.44v0a3.4,3.4,0,0,0-.74-2.34,3,3,0,0,0-4.15,0,3.48,3.48,0,0,0-.74,2.36v0a3.62,3.62,0,0,0,.74,2.43,2.95,2.95,0,0,0,4.15,0Z"/><path class="cls-3" d="M106.4,182a7.14,7.14,0,0,1-2.78-2.78,9.88,9.88,0,0,1-1.21-4.33v0h5.08v0a3.87,3.87,0,0,0,.91,2.31,2.58,2.58,0,0,0,2,.82,2.53,2.53,0,0,0,2.06-.87,3.72,3.72,0,0,0,.74-2.47v-2.26a4,4,0,0,0-.66-2.46,2.21,2.21,0,0,0-1.85-.86,3,3,0,0,0-1.86.56,2.84,2.84,0,0,0-1.07,1.55H103V155.66h14.49v4.9h-9.41v4.77a4,4,0,0,1,1.57-.88,6.23,6.23,0,0,1,2-.33,6.51,6.51,0,0,1,3.59,1,6,6,0,0,1,2.27,2.82,11.53,11.53,0,0,1,.78,4.47v2.26a9.78,9.78,0,0,1-.94,4.48,6.5,6.5,0,0,1-2.71,2.83,9,9,0,0,1-4.31,1A8,8,0,0,1,106.4,182Z"/><path class="cls-1" d="M0,79.57l51.14,36.29,32-18.15,31.43,18.15,51.14-36.29V217.86H0ZM12.48,204.68h141v-97.5l-39.17,27.64-31.21-18-30.77,18L12.48,107.18Z"/><polygon class="cls-5" points="12.48 107.54 12.48 101.96 51.59 128.82 82.88 111.11 114.02 128.82 153.45 101.96 153.45 108.11 114.45 135.11 82.96 116.82 51.88 135.11 12.48 107.54"/></g></g></svg>